# Tiled2Unity generated file. Do not modify by hand.
# Wavefront file for 'lvl1_mesh_0002.obj'

# Vertices (Count = 48)
v -114 -2 0
v -115 -2 0
v -115 -1 0
v -114 -1 0
v -116 -2 0
v -117 -2 0
v -117 -1 0
v -116 -1 0
v -118 -2 0
v -119 -2 0
v -119 -1 0
v -118 -1 0
v -120 -2 0
v -121 -2 0
v -121 -1 0
v -120 -1 0
v -122 -2 0
v -123 -2 0
v -123 -1 0
v -122 -1 0
v -124 -2 0
v -125 -2 0
v -125 -1 0
v -124 -1 0
v -126 -2 0
v -127 -2 0
v -127 -1 0
v -126 -1 0
v -128 -2 0
v -129 -2 0
v -129 -1 0
v -128 -1 0
v -130 -2 0
v -131 -2 0
v -131 -1 0
v -130 -1 0
v -132 -2 0
v -133 -2 0
v -133 -1 0
v -132 -1 0
v -134 -2 0
v -135 -2 0
v -135 -1 0
v -134 -1 0
v -136 -2 0
v -137 -2 0
v -137 -1 0
v -136 -1 0

# Texture cooridinates (Count = 8)
vt 0.7619048 0.948718
vt 0.8095238 0.948718
vt 0.8095238 0.974359
vt 0.7619048 0.974359
vt 0.8095238 1
vt 0.7619048 1
vt 0.7142857 0.974359
vt 0.7142857 1

# Normal
vn 0 0 -1

# Mesh description
g lvl1_mesh_0002

# Faces
f 1/1/1 2/2/1 3/3/1 4/4/1
f 5/1/1 6/2/1 7/3/1 8/4/1
f 9/1/1 10/2/1 11/3/1 12/4/1
f 13/1/1 14/2/1 15/3/1 16/4/1
f 17/1/1 18/2/1 19/3/1 20/4/1
f 21/4/1 22/3/1 23/5/1 24/6/1
f 25/7/1 26/4/1 27/6/1 28/8/1
f 29/1/1 30/2/1 31/3/1 32/4/1
f 33/1/1 34/2/1 35/3/1 36/4/1
f 37/1/1 38/2/1 39/3/1 40/4/1
f 41/1/1 42/2/1 43/3/1 44/4/1
f 45/1/1 46/2/1 47/3/1 48/4/1

