# Tiled2Unity generated file. Do not modify by hand.
# Wavefront file for 'lvl1_mesh_0002.obj'

# Vertices (Count = 72)
v -149 -1 0
v -149.5 -1 0
v -149.5 -0.5 0
v -149 -0.5 0
v -150 -1 0
v -150.5 -1 0
v -150.5 -0.5 0
v -150 -0.5 0
v -151 -1 0
v -151.5 -1 0
v -151.5 -0.5 0
v -151 -0.5 0
v -152 -1 0
v -152.5 -1 0
v -152.5 -0.5 0
v -152 -0.5 0
v -153 -1 0
v -153.5 -1 0
v -153.5 -0.5 0
v -153 -0.5 0
v -154 -1 0
v -154.5 -1 0
v -154.5 -0.5 0
v -154 -0.5 0
v -155 -1 0
v -155.5 -1 0
v -155.5 -0.5 0
v -155 -0.5 0
v -156 -1 0
v -156.5 -1 0
v -156.5 -0.5 0
v -156 -0.5 0
v -157 -1 0
v -157.5 -1 0
v -157.5 -0.5 0
v -157 -0.5 0
v -158 -1 0
v -158.5 -1 0
v -158.5 -0.5 0
v -158 -0.5 0
v -159 -1 0
v -159.5 -1 0
v -159.5 -0.5 0
v -159 -0.5 0
v -160 -1 0
v -160.5 -1 0
v -160.5 -0.5 0
v -160 -0.5 0
v -161 -1 0
v -161.5 -1 0
v -161.5 -0.5 0
v -161 -0.5 0
v -162 -1 0
v -162.5 -1 0
v -162.5 -0.5 0
v -162 -0.5 0
v -163 -1 0
v -163.5 -1 0
v -163.5 -0.5 0
v -163 -0.5 0
v -164 -1 0
v -164.5 -1 0
v -164.5 -0.5 0
v -164 -0.5 0
v -165 -1 0
v -165.5 -1 0
v -165.5 -0.5 0
v -165 -0.5 0
v -166 -1 0
v -166.5 -1 0
v -166.5 -0.5 0
v -166 -0.5 0

# Texture cooridinates (Count = 8)
vt 0.7619048 0.948718
vt 0.8095238 0.948718
vt 0.8095238 0.974359
vt 0.7619048 0.974359
vt 0.8095238 1
vt 0.7619048 1
vt 0.7142857 0.974359
vt 0.7142857 1

# Normal
vn 0 0 -1

# Mesh description
g lvl1_mesh_0002

# Faces
f 1/1/1 2/2/1 3/3/1 4/4/1
f 5/1/1 6/2/1 7/3/1 8/4/1
f 9/1/1 10/2/1 11/3/1 12/4/1
f 13/1/1 14/2/1 15/3/1 16/4/1
f 17/1/1 18/2/1 19/3/1 20/4/1
f 21/1/1 22/2/1 23/3/1 24/4/1
f 25/1/1 26/2/1 27/3/1 28/4/1
f 29/1/1 30/2/1 31/3/1 32/4/1
f 33/4/1 34/3/1 35/5/1 36/6/1
f 37/7/1 38/4/1 39/6/1 40/8/1
f 41/1/1 42/2/1 43/3/1 44/4/1
f 45/1/1 46/2/1 47/3/1 48/4/1
f 49/1/1 50/2/1 51/3/1 52/4/1
f 53/1/1 54/2/1 55/3/1 56/4/1
f 57/1/1 58/2/1 59/3/1 60/4/1
f 61/1/1 62/2/1 63/3/1 64/4/1
f 65/1/1 66/2/1 67/3/1 68/4/1
f 69/1/1 70/2/1 71/3/1 72/4/1

